<svg aria-hidden="true" style="position: absolute; width: 0; height: 0; overflow: hidden;" version="1.1" xmlns="http://www.w3.org/2000/svg" xmlns:xlink="http://www.w3.org/1999/xlink">
<defs>
<symbol id="icon-outline13" viewBox="0 0 32 32">
<path fill="none" stroke="#407bff" style="stroke: var(--color1, #407bff)" stroke-linejoin="round" stroke-linecap="round" stroke-miterlimit="4" stroke-width="1.6" d="M15.226 20.226l7.774 7.774c0.636 0.616 1.503 0.995 2.459 0.995 1.953 0 3.536-1.583 3.536-3.536 0-0.956-0.38-1.824-0.996-2.46l0.001 0.001-7.836-7.836M15.226 20.226l3.328-4.040c0.423-0.512 0.987-0.834 1.611-1.021 0.733-0.219 1.55-0.251 2.324-0.187 0.154 0.014 0.332 0.022 0.513 0.022 3.314 0 6-2.686 6-6 0-0.895-0.196-1.744-0.547-2.507l0.015 0.037-4.368 4.37c-1.493-0.354-2.646-1.507-2.995-2.973l-0.005-0.027 4.368-4.368c-0.726-0.336-1.575-0.532-2.47-0.532-3.314 0-6 2.686-6 6 0 0.181 0.008 0.36 0.024 0.536l-0.002-0.023c0.122 1.434-0.094 3.018-1.205 3.933l-0.136 0.114M15.226 20.226l-6.206 7.538c-0.628 0.758-1.569 1.237-2.621 1.237-1.876 0-3.397-1.521-3.397-3.397 0-1.053 0.479-1.994 1.231-2.617l0.006-0.005 9.116-7.506-5.476-5.476h-1.878l-3-5 2-2 5 3v1.878l5.68 5.68-2.326 1.916M24.5 24.5l-3.5-3.5M6.49 25.5h0.010v0.010h-0.010v-0.010z"></path>
</symbol>
<symbol id="icon-solid3" viewBox="0 0 32 32">
<path d="M16.707 21.707c-0.181 0.181-0.431 0.292-0.707 0.292s-0.526-0.112-0.707-0.292v0l-10-10c-0.166-0.178-0.268-0.418-0.268-0.682 0-0.552 0.448-1 1-1 0.264 0 0.504 0.102 0.682 0.269l-0.001-0.001 9.293 9.293 9.293-9.293c0.183-0.196 0.443-0.318 0.732-0.318 0.552 0 1 0.448 1 1 0 0.289-0.122 0.549-0.318 0.731l-0.001 0.001-10 10z"></path>
</symbol>
<symbol id="icon-solid2" viewBox="0 0 32 32">
<path d="M7 16c0-0.552 0.448-1 1-1v0h16c0.552 0 1 0.448 1 1s-0.448 1-1 1v0h-16c-0.552 0-1-0.448-1-1v0z"></path>
</symbol>
<symbol id="icon-solid1" viewBox="0 0 32 32">
<path d="M9.707 10.293c0.181 0.181 0.292 0.431 0.292 0.707s-0.112 0.526-0.292 0.707v0l-3.293 3.293h21.587c0.552 0 1 0.448 1 1s-0.448 1-1 1v0h-21.587l3.293 3.293c0.181 0.181 0.293 0.431 0.293 0.707 0 0.552-0.447 0.999-0.999 0.999-0.276 0-0.526-0.112-0.707-0.293v0l-5-5c-0.181-0.181-0.292-0.431-0.292-0.707s0.112-0.526 0.292-0.707v0l5-5c0.181-0.181 0.431-0.292 0.707-0.292s0.526 0.112 0.707 0.292v0z"></path>
</symbol>
<symbol id="icon-outline12" viewBox="0 0 32 32">
<path fill="none" stroke="#407bff" style="stroke: var(--color1, #407bff)" stroke-linejoin="round" stroke-linecap="round" stroke-miterlimit="4" stroke-width="1.6" d="M5 4v15c0 1.657 1.343 3 3 3v0h3M5 4h-2M5 4h22M11 22h10M11 22l-1.334 4M27 4h2M27 4v15c0 1.657-1.343 3-3 3v0h-3M21 22l1.334 4M9.666 26h12.667M9.666 26l-0.666 2M22.334 26l0.666 2M12 15v2M16 12v5M20 9v8"></path>
</symbol>
<symbol id="icon-outline11" viewBox="0 0 32 32">
<path fill="none" stroke="#407bff" style="stroke: var(--color1, #407bff)" stroke-linejoin="round" stroke-linecap="round" stroke-miterlimit="4" stroke-width="1.6" d="M9 4v3M23 4v3M4 25v-15c0-1.657 1.343-3 3-3v0h18c1.657 0 3 1.343 3 3v0 15M4 25c0 1.657 1.343 3 3 3v0h18c1.657 0 3-1.343 3-3v0M4 25v-10c0-1.657 1.343-3 3-3v0h18c1.657 0 3 1.343 3 3v0 10M16 17h0.010v0.010h-0.010v-0.010zM16 20h0.010v0.010h-0.010v-0.010zM16 23h0.010v0.010h-0.010v-0.010zM13 20h0.010v0.010h-0.010v-0.010zM13 23h0.010v0.010h-0.010v-0.010zM10 20h0.010v0.010h-0.010v-0.010zM10 23h0.010v0.010h-0.010v-0.010zM19 17h0.010v0.010h-0.010v-0.010zM19 20h0.010v0.010h-0.010v-0.010zM19 23h0.010v0.010h-0.010v-0.010zM22 17h0.010v0.010h-0.010v-0.010zM22 20h0.010v0.010h-0.010v-0.010z"></path>
</symbol>
<symbol id="icon-outline10" viewBox="0 0 32 32">
<path stroke-linejoin="miter" stroke-linecap="butt" stroke-miterlimit="4" stroke-width="1.3333" d="M31.333 16c0 8.468-6.865 15.333-15.333 15.333s-15.333-6.865-15.333-15.333c0-8.468 6.865-15.333 15.333-15.333s15.333 6.865 15.333 15.333z"></path>
<path stroke-linejoin="round" stroke-linecap="round" stroke-miterlimit="4" stroke-width="1.3333" d="M20 9.436c0 0.002 0 0.005 0 0.008 0 1.125-0.446 2.145-1.172 2.894l0.001-0.001c-0.717 0.739-1.72 1.198-2.829 1.2h-0c-1.11-0.002-2.112-0.461-2.828-1.199l-0.001-0.001c-0.724-0.747-1.171-1.767-1.171-2.891 0-0.004 0-0.007 0-0.010v0.001c0-1.088 0.421-2.132 1.171-2.901 0.717-0.739 1.719-1.199 2.829-1.201h0c1.061 0 2.079 0.432 2.829 1.201 0.724 0.748 1.171 1.768 1.171 2.893 0 0.003 0 0.006 0 0.009v-0zM8 24.88c0.032-2.23 0.938-4.243 2.39-5.716l-0.001 0.001c1.43-1.45 3.415-2.35 5.61-2.355h0.001c2.196 0.004 4.181 0.905 5.61 2.355l0.001 0.001c1.451 1.472 2.357 3.484 2.389 5.707l0 0.006c-2.338 1.128-5.084 1.787-7.983 1.787-0.006 0-0.012 0-0.018 0h0.001c-2.855 0-5.564-0.64-8-1.787z"></path>
</symbol>
<symbol id="icon-outline9" viewBox="0 0 32 32">
<path stroke-linejoin="round" stroke-linecap="round" stroke-miterlimit="4" stroke-width="1.3333" d="M21 12v-5c0-1.657-1.343-3-3-3v0h-8c-1.657 0-3 1.343-3 3v0 18c0 1.657 1.343 3 3 3v0h8c1.657 0 3-1.343 3-3v0-5M25 20l4-4M29 16l-4-4M29 16h-17"></path>
</symbol>
<symbol id="icon-outline8" viewBox="0 0 32 32">
<path stroke-linejoin="round" stroke-linecap="round" stroke-miterlimit="4" stroke-width="1.3333" d="M12.792 5.253c0.12-0.723 0.747-1.253 1.48-1.253h3.457c0.733 0 1.36 0.531 1.48 1.253l0.284 1.708c0.084 0.499 0.417 0.915 0.86 1.16 0.099 0.053 0.196 0.111 0.293 0.169 0.432 0.261 0.96 0.343 1.433 0.165l1.623-0.608c0.157-0.061 0.338-0.096 0.528-0.096 0.552 0 1.034 0.298 1.295 0.742l0.004 0.007 1.728 2.996c0.126 0.215 0.201 0.473 0.201 0.749 0 0.465-0.212 0.881-0.545 1.157l-0.003 0.002-1.337 1.103c-0.391 0.32-0.584 0.817-0.573 1.323v0.34c-0.011 0.504 0.183 1 0.573 1.32l1.339 1.104c0.565 0.467 0.712 1.272 0.347 1.907l-1.731 2.996c-0.264 0.452-0.747 0.75-1.299 0.75-0.189 0-0.37-0.035-0.537-0.099l0.010 0.003-1.623-0.608c-0.473-0.177-1-0.096-1.435 0.165-0.058 0.037-0.154 0.094-0.25 0.148l-0.043 0.022c-0.44 0.244-0.773 0.66-0.859 1.159l-0.284 1.707c-0.12 0.724-0.747 1.255-1.48 1.255h-3.459c-0.733 0-1.36-0.531-1.48-1.253l-0.284-1.708c-0.083-0.499-0.416-0.915-0.859-1.16-0.14-0.077-0.236-0.133-0.331-0.191l0.038 0.021c-0.433-0.261-0.96-0.343-1.435-0.165l-1.623 0.608c-0.156 0.061-0.338 0.096-0.527 0.096-0.552 0-1.034-0.298-1.295-0.742l-0.004-0.007-1.729-2.996c-0.126-0.215-0.201-0.474-0.201-0.749 0-0.465 0.212-0.881 0.545-1.157l0.003-0.002 1.339-1.103c0.389-0.32 0.583-0.817 0.573-1.323-0.001-0.051-0.002-0.11-0.002-0.17s0.001-0.119 0.002-0.179l-0 0.009c0.009-0.504-0.184-1-0.573-1.32l-1.339-1.104c-0.335-0.277-0.547-0.693-0.547-1.158 0-0.276 0.074-0.534 0.204-0.756l-0.004 0.007 1.729-2.996c0.264-0.452 0.747-0.75 1.299-0.75 0.189 0 0.371 0.035 0.538 0.099l-0.010-0.003 1.621 0.608c0.475 0.177 1.001 0.096 1.435-0.165 0.096-0.059 0.195-0.116 0.293-0.171 0.443-0.244 0.776-0.66 0.859-1.159l0.285-1.708z"></path>
<path stroke-linejoin="round" stroke-linecap="round" stroke-miterlimit="4" stroke-width="1.3333" d="M20 16c0 2.209-1.791 4-4 4s-4-1.791-4-4v0c0-2.209 1.791-4 4-4s4 1.791 4 4v0z"></path>
</symbol>
<symbol id="icon-outline7" viewBox="0 0 32 32">
<path stroke-linejoin="round" stroke-linecap="round" stroke-miterlimit="4" stroke-width="1.3333" d="M2.715 16.429c-0.044-0.127-0.069-0.274-0.069-0.426s0.025-0.299 0.072-0.435l-0.003 0.009c1.849-5.564 7.099-9.577 13.285-9.577 6.184 0 11.431 4.009 13.284 9.571 0.093 0.276 0.093 0.575 0 0.852-1.848 5.564-7.097 9.577-13.284 9.577-6.184 0-11.432-4.009-13.285-9.571z"></path>
<path stroke-linejoin="round" stroke-linecap="round" stroke-miterlimit="4" stroke-width="1.3333" d="M20 16c0 2.209-1.791 4-4 4s-4-1.791-4-4v0c0-2.209 1.791-4 4-4s4 1.791 4 4v0z"></path>
</symbol>
<symbol id="icon-outline6" viewBox="0 0 32 32">
<path stroke-linejoin="round" stroke-linecap="round" stroke-miterlimit="4" stroke-width="1.3333" d="M5.307 10.964c-1.203 1.412-2.138 3.094-2.702 4.937l-0.026 0.099c1.723 5.784 7.080 10 13.421 10 1.324 0 2.604-0.184 3.817-0.527M8.304 8.304c2.16-1.444 4.817-2.304 7.674-2.304 0.008 0 0.015 0 0.023 0h-0.001c6.341 0 11.697 4.216 13.42 9.997-0.985 3.228-3.008 5.891-5.673 7.666l-0.051 0.032M8.304 8.304l-4.304-4.304M8.304 8.304l4.867 4.867M23.696 23.696l4.304 4.304M23.696 23.696l-4.867-4.867c0.738-0.726 1.195-1.736 1.195-2.852 0-2.209-1.791-4-4-4-1.116 0-2.125 0.457-2.851 1.194l-0.001 0.001M18.829 18.828l-5.655-5.655"></path>
</symbol>
<symbol id="icon-outline5" viewBox="0 0 32 32">
<path stroke-linejoin="round" stroke-linecap="round" stroke-miterlimit="4" stroke-width="1.3333" d="M19.653 12l-0.461 12M12.808 24l-0.461-12M25.637 7.72c0.456 0.069 0.909 0.143 1.363 0.221M25.637 7.72l-1.424 18.511c-0.123 1.555-1.415 2.769-2.991 2.769-0 0-0.001 0-0.001 0h-10.443c-0 0-0.001 0-0.001 0-1.576 0-2.868-1.215-2.99-2.759l-0.001-0.011-1.424-18.511M25.637 7.72c-1.212-0.199-2.804-0.386-4.412-0.515l-0.225-0.014M6.363 7.72c-0.789 0.112-1.252 0.19-1.714 0.272l0.351-0.052M6.363 7.72c1.212-0.199 2.804-0.386 4.412-0.515l0.225-0.014M21 7.191v-1.221c0-1.573-1.213-2.885-2.787-2.935-0.66-0.023-1.435-0.035-2.213-0.035s-1.554 0.013-2.326 0.038l0.113-0.003c-1.573 0.049-2.787 1.363-2.787 2.935v1.221M21 7.191c-1.497-0.123-3.24-0.193-5-0.193s-3.503 0.070-5.227 0.207l0.227-0.015"></path>
</symbol>
<symbol id="icon-outline4" viewBox="0 0 32 32">
<path stroke-linejoin="round" stroke-linecap="round" stroke-miterlimit="4" stroke-width="1.3333" d="M22.483 5.983l2.249-2.251c0.452-0.452 1.078-0.732 1.768-0.732 1.381 0 2.5 1.119 2.5 2.5 0 0.69-0.28 1.316-0.732 1.768l-14.159 14.159c-0.685 0.685-1.536 1.205-2.487 1.495l-0.043 0.011-3.58 1.067 1.067-3.58c0.301-0.993 0.822-1.844 1.507-2.529l11.909-11.908zM22.483 5.983l3.517 3.517M24 18.667v6.333c0 1.657-1.343 3-3 3v0h-14c-1.657 0-3-1.343-3-3v0-14c0-1.657 1.343-3 3-3v0h6.333"></path>
</symbol>
<symbol id="icon-outline3" viewBox="0 0 32 32">
<path stroke-linejoin="round" stroke-linecap="round" stroke-miterlimit="4" stroke-width="1.3333" d="M16 8v16M24 16h-16"></path>
</symbol>
<symbol id="icon-outline2" viewBox="0 0 32 32">
<path stroke-linejoin="round" stroke-linecap="round" stroke-miterlimit="4" stroke-width="1.3333" d="M4 22v3c0 1.657 1.343 3 3 3v0h18c1.657 0 3-1.343 3-3v0-3M10 10l6-6M16 4l6 6M16 4v18"></path>
</symbol>
<symbol id="icon-cross" viewBox="0 0 32 32">
<path stroke-linejoin="round" stroke-linecap="round" stroke-miterlimit="4" stroke-width="3.4286" d="M2.286 29.714l27.429-27.429M2.286 2.286l27.429 27.429"></path>
</symbol>
<symbol id="icon-plus" viewBox="0 0 32 32">
<path d="M16 7c0.265 0 0.52 0.105 0.707 0.293s0.293 0.442 0.293 0.707v7h7c0.265 0 0.52 0.105 0.707 0.293s0.293 0.442 0.293 0.707-0.105 0.52-0.293 0.707c-0.187 0.188-0.442 0.293-0.707 0.293h-7v7c0 0.265-0.105 0.52-0.293 0.707s-0.442 0.293-0.707 0.293-0.52-0.105-0.707-0.293c-0.188-0.187-0.293-0.442-0.293-0.707v-7h-7c-0.265 0-0.52-0.105-0.707-0.293s-0.293-0.442-0.293-0.707 0.105-0.52 0.293-0.707c0.188-0.188 0.442-0.293 0.707-0.293h7v-7c0-0.265 0.105-0.52 0.293-0.707s0.442-0.293 0.707-0.293z"></path>
</symbol>
<symbol id="icon-minus" viewBox="0 0 32 32">
<path d="M7 16c0-0.265 0.105-0.52 0.293-0.707s0.442-0.293 0.707-0.293h16c0.265 0 0.52 0.105 0.707 0.293s0.293 0.442 0.293 0.707-0.105 0.52-0.293 0.707c-0.187 0.188-0.442 0.293-0.707 0.293h-16c-0.265 0-0.52-0.105-0.707-0.293s-0.293-0.442-0.293-0.707z"></path>
</symbol>
<symbol id="icon-outline1" viewBox="0 0 32 32">
<path stroke-linejoin="round" stroke-linecap="round" stroke-miterlimit="4" stroke-width="1.3333" d="M16 12v8M20 16h-8M28 16c0 6.627-5.373 12-12 12s-12-5.373-12-12v0c0-6.627 5.373-12 12-12s12 5.373 12 12v0z"></path>
</symbol>
</defs>
</svg>
